<?xml version="1.0"?>
<svg xmlns="http://www.w3.org/2000/svg" id="Glyph" viewBox="0 0 512 512" width="512px" height="512px"><g><path d="M256,192a8.009,8.009,0,0,0-8,8v24h16V200A8.009,8.009,0,0,0,256,192Z" data-original="#000000" class="active-path" data-old_color="#000000" fill="#194C80"/><path d="M312,291.851l34.734,12.63A8,8,0,0,1,352,312V480H480V286.092L312,239.747ZM392,360a24,24,0,0,1,48,0v32a8,8,0,0,1-8,8H400a8,8,0,0,1-8-8Z" data-original="#000000" class="active-path" data-old_color="#000000" fill="#194C80"/><path d="M424,360a8,8,0,0,0-16,0v24h16Z" data-original="#000000" class="active-path" data-old_color="#000000" fill="#194C80"/><path d="M96,352a8.009,8.009,0,0,0-8,8v24h16V360A8.009,8.009,0,0,0,96,352Z" data-original="#000000" class="active-path" data-old_color="#000000" fill="#194C80"/><path d="M176,317.6V480h40V408a40,40,0,0,1,80,0v72h40V317.6l-80-29.091Z" data-original="#000000" class="active-path" data-old_color="#000000" fill="#194C80"/><path d="M258.734,272.481,296,286.033V157.766l-40-13.333-40,13.333V286.033l37.266-13.552A8,8,0,0,1,258.734,272.481ZM232,232V200a24,24,0,0,1,48,0v32a8,8,0,0,1-8,8H240A8,8,0,0,1,232,232Z" data-original="#000000" class="active-path" data-old_color="#000000" fill="#194C80"/><path d="M200,239.747,32,286.092V480H160V312a8,8,0,0,1,5.266-7.519L200,291.851ZM120,392a8,8,0,0,1-8,8H80a8,8,0,0,1-8-8V360a24,24,0,0,1,48,0Z" data-original="#000000" class="active-path" data-old_color="#000000" fill="#194C80"/><path d="M232,408v72h16V385.376A24.039,24.039,0,0,0,232,408Z" data-original="#000000" class="active-path" data-old_color="#000000" fill="#194C80"/><path d="M264,385.376V480h16V408A24.039,24.039,0,0,0,264,385.376Z" data-original="#000000" class="active-path" data-old_color="#000000" fill="#194C80"/><path d="M288,56a8,8,0,0,1-8,8H264v66.23l-5.47-1.82a7.965,7.965,0,0,0-5.06,0L248,130.23V64H232a8,8,0,0,1,0-16h16V24a8,8,0,0,1,16,0V48h16A8,8,0,0,1,288,56Z" data-original="#000000" class="active-path" data-old_color="#000000" fill="#194C80"/></g> </svg>
