<?xml version="1.0"?>
<svg xmlns="http://www.w3.org/2000/svg" xmlns:xlink="http://www.w3.org/1999/xlink" version="1.1" id="Layer_1" x="0px" y="0px" viewBox="0 0 512 512" style="enable-background:new 0 0 512 512;" xml:space="preserve" width="512px" height="512px" class=""><g><g>
	<g>
		<circle cx="57.698" cy="48.106" r="44.964" data-original="#000000" class="active-path" data-old_color="#000000" fill="#194C80"/>
	</g>
</g><g>
	<g>
		<circle cx="399.746" cy="45.66" r="44.964" data-original="#000000" class="active-path" data-old_color="#000000" fill="#194C80"/>
	</g>
</g><g>
	<g>
		<path d="M473.36,297.415c11.47,1.828,22.219-5.989,24.044-17.425l14.332-89.785c1.179-7.385-1.659-14.84-7.451-19.571    l-46.932-38.341c-1.117-15.76-14.246-28.201-30.29-28.201h-54.171c-16.777,0-30.377,13.601-30.377,30.377l0.096,20.227    l69.54-29.956l-65.134,50.665l-58.577-19.619v-17.769c15.094-4.853,26.188-19.042,26.188-35.941V78.66    c0-4.353-3.528-7.88-7.88-7.88c-64.32,0-60.024-0.077-61.183,0.137l2.039-9.972c0.872-4.264-1.878-8.427-6.142-9.299    l-58.533-11.968c-4.264-0.872-8.427,1.878-9.299,6.142l-4.69,22.941c-3.312,16.2,4.295,32.089,17.771,40.058    c-2.576,13.07-3.702,18.777-6.263,31.767l-67.33,27.943l-68.529-45.973l70.362,24.5l-0.026-10.141    c0-16.777-13.601-30.377-30.377-30.377h-54.17C13.601,106.539,0,120.14,0,136.917c0,0,0.01,346.474,0.01,348.35    c0,14.38,11.657,26.036,26.036,26.036s26.036-11.657,26.036-26.036c0-1.879,0.004-191.48-0.008-192.496h8.792l27.035,73.709    L63.888,479.867c-2.979,14.068,6.01,27.886,20.078,30.866c14.07,2.979,27.886-6.012,30.866-20.078l25.564-120.715    c1.014-4.787,0.658-9.765-1.027-14.359l-24.444-66.646v-19.908l40.768,13.403c11.032,3.625,22.888-2.388,26.504-13.389    c3.622-11.017-2.373-22.882-13.389-26.504l-37.089-12.193l-4.731,1.963c-13.07,5.423-28.069,4.035-39.99-3.96    c-1.333-0.893-2.557-1.938-3.649-3.112l-60.421-64.952l75.673,50.765v0.001c0.008,0.006,0.017,0.01,0.026,0.016    c6.041,4.038,13.717,4.771,20.38,2.006c8.576-3.559,71.215-29.556,80.064-33.228c11.092-4.603,16.308-17.309,11.723-28.357    c-0.001-0.002-0.002-0.004-0.003-0.007c-1.403-3.377-3.676-6.346-6.352-8.518c1.965-9.966,3.633-18.43,5.741-29.123    c12.212-1.383,23.081-8.695,28.944-19.528c0,7.762-1.712,25.306,15.065,37.939c3.085,2.323,6.539,4.177,10.256,5.473v13.208    c-7.56,1.618-13.634,7.085-16.057,14.321c-3.763,11.234,2.213,23.624,13.683,27.465l82.197,27.53    c6.867,2.301,14.512,0.985,20.213-3.448l71.924-55.948l-55.716,69.031c-5.647,6.994-21.12,14.971-38.173,11.429v49.013    l-16.851,63.324c-0.928,3.396-1.155,6.945-0.672,10.432L342.29,488.84c1.975,14.243,15.121,24.188,29.366,22.214    c14.243-1.975,24.188-15.122,22.213-29.365l-16.565-119.474l19.626-71.891h8.407l45.953,200.747    c3.208,14.014,17.17,22.78,31.189,19.57c14.017-3.208,22.779-17.173,19.57-31.189l-44.365-193.81    C460.549,291.694,466.249,296.28,473.36,297.415z M457.441,263.944V186.59l10.923,8.924L457.441,263.944z" data-original="#000000" class="active-path" data-old_color="#000000" fill="#194C80"/>
	</g>
</g></g> </svg>
